<svg xmlns="http://www.w3.org/2000/svg" xmlns:xlink="http://www.w3.org/1999/xlink" width="50" zoomAndPan="magnify" viewBox="0 0 37.5 37.499999" height="50" preserveAspectRatio="xMidYMid meet" version="1.0"><defs><clipPath id="5802019bcc"><path d="M 0 14.292969 L 11.097656 14.292969 L 11.097656 22.722656 L 0 22.722656 Z M 0 14.292969 " clip-rule="nonzero"/></clipPath><clipPath id="7b1676c99d"><path d="M 0.253906 17.105469 C 0.0976562 17.535156 -0.00390625 18.027344 -0.00390625 18.511719 C -0.00390625 18.992188 0.0820312 19.457031 0.242188 19.882812 C 0.246094 19.894531 0.246094 19.902344 0.25 19.910156 C 0.878906 21.515625 2.542969 22.699219 4.480469 22.722656 L 11.097656 22.722656 L 11.097656 14.292969 L 4.488281 14.292969 C 2.53125 14.316406 0.871094 15.480469 0.253906 17.105469 Z M 0.253906 17.105469 " clip-rule="nonzero"/></clipPath><clipPath id="d7597608bc"><path d="M 25.898438 14.285156 L 37 14.285156 L 37 22.710938 L 25.898438 22.710938 Z M 25.898438 14.285156 " clip-rule="nonzero"/></clipPath><clipPath id="cc3a21ff31"><path d="M 36.742188 19.902344 C 36.898438 19.46875 37.003906 18.980469 37.003906 18.496094 C 37.003906 18.015625 36.914062 17.550781 36.757812 17.121094 C 36.75 17.113281 36.75 17.105469 36.746094 17.09375 C 36.117188 15.488281 34.457031 14.308594 32.515625 14.285156 L 25.898438 14.285156 L 25.898438 22.710938 L 32.511719 22.710938 C 34.464844 22.691406 36.128906 21.527344 36.742188 19.902344 Z M 36.742188 19.902344 " clip-rule="nonzero"/></clipPath><clipPath id="a8e78dfb1e"><path d="M 0 3.707031 L 11.097656 3.707031 L 11.097656 12.132812 L 0 12.132812 Z M 0 3.707031 " clip-rule="nonzero"/></clipPath><clipPath id="b35679c810"><path d="M 0.253906 6.515625 C 0.0976562 6.949219 -0.00390625 7.441406 -0.00390625 7.921875 C -0.00390625 8.402344 0.0820312 8.867188 0.242188 9.296875 C 0.246094 9.304688 0.246094 9.3125 0.25 9.324219 C 0.878906 10.929688 2.542969 12.109375 4.480469 12.132812 L 11.097656 12.132812 L 11.097656 3.707031 L 4.488281 3.707031 C 2.53125 3.726562 0.871094 4.890625 0.253906 6.515625 Z M 0.253906 6.515625 " clip-rule="nonzero"/></clipPath><clipPath id="ab01eae046"><path d="M 25.898438 3.695312 L 37 3.695312 L 37 12.125 L 25.898438 12.125 Z M 25.898438 3.695312 " clip-rule="nonzero"/></clipPath><clipPath id="b6aced9d0e"><path d="M 36.742188 9.3125 C 36.898438 8.882812 37.003906 8.390625 37.003906 7.90625 C 37.003906 7.425781 36.914062 6.960938 36.757812 6.535156 C 36.75 6.523438 36.75 6.515625 36.746094 6.507812 C 36.117188 4.902344 34.457031 3.71875 32.515625 3.695312 L 25.898438 3.695312 L 25.898438 12.125 L 32.511719 12.125 C 34.464844 12.101562 36.128906 10.9375 36.742188 9.3125 Z M 36.742188 9.3125 " clip-rule="nonzero"/></clipPath><clipPath id="c403054a40"><path d="M 5.550781 3.699219 L 31.457031 3.699219 L 31.457031 12.128906 L 5.550781 12.128906 Z M 5.550781 3.699219 " clip-rule="nonzero"/></clipPath><clipPath id="d6d157872d"><path d="M 0 24.941406 L 11.097656 24.941406 L 11.097656 33.371094 L 0 33.371094 Z M 0 24.941406 " clip-rule="nonzero"/></clipPath><clipPath id="5573d6329c"><path d="M 0.253906 27.753906 C 0.0976562 28.183594 -0.00390625 28.675781 -0.00390625 29.160156 C -0.00390625 29.640625 0.0820312 30.105469 0.242188 30.53125 C 0.246094 30.542969 0.246094 30.550781 0.25 30.558594 C 0.878906 32.164062 2.542969 33.347656 4.480469 33.371094 L 11.097656 33.371094 L 11.097656 24.941406 L 4.488281 24.941406 C 2.53125 24.964844 0.871094 26.128906 0.253906 27.753906 Z M 0.253906 27.753906 " clip-rule="nonzero"/></clipPath><clipPath id="ec04d790b6"><path d="M 25.898438 24.933594 L 37 24.933594 L 37 33.363281 L 25.898438 33.363281 Z M 25.898438 24.933594 " clip-rule="nonzero"/></clipPath><clipPath id="04a7c6c29e"><path d="M 36.742188 30.550781 C 36.898438 30.117188 37.003906 29.628906 37.003906 29.144531 C 37.003906 28.664062 36.914062 28.199219 36.757812 27.769531 C 36.75 27.761719 36.75 27.753906 36.746094 27.742188 C 36.117188 26.136719 34.457031 24.957031 32.515625 24.933594 L 25.898438 24.933594 L 25.898438 33.363281 L 32.511719 33.363281 C 34.464844 33.339844 36.128906 32.175781 36.742188 30.550781 Z M 36.742188 30.550781 " clip-rule="nonzero"/></clipPath><clipPath id="d93dd6fb59"><path d="M 5.550781 14.320312 L 31.457031 14.320312 L 31.457031 22.746094 L 5.550781 22.746094 Z M 5.550781 14.320312 " clip-rule="nonzero"/></clipPath><clipPath id="8f61e64dac"><path d="M 5.550781 24.96875 L 31.457031 24.96875 L 31.457031 33.394531 L 5.550781 33.394531 Z M 5.550781 24.96875 " clip-rule="nonzero"/></clipPath></defs><g clip-path="url(#5802019bcc)"><g clip-path="url(#7b1676c99d)"><path fill="#ffffff" d="M 11.097656 14.292969 L 11.097656 22.722656 L 0.00390625 22.722656 L 0.00390625 14.292969 Z M 11.097656 14.292969 " fill-opacity="1" fill-rule="nonzero"/></g></g><g clip-path="url(#d7597608bc)"><g clip-path="url(#cc3a21ff31)"><path fill="#ffffff" d="M 25.898438 22.710938 L 25.898438 14.285156 L 36.996094 14.285156 L 36.996094 22.710938 Z M 25.898438 22.710938 " fill-opacity="1" fill-rule="nonzero"/></g></g><g clip-path="url(#a8e78dfb1e)"><g clip-path="url(#b35679c810)"><path fill="#ffffff" d="M 11.097656 3.707031 L 11.097656 12.132812 L 0.00390625 12.132812 L 0.00390625 3.707031 Z M 11.097656 3.707031 " fill-opacity="1" fill-rule="nonzero"/></g></g><g clip-path="url(#ab01eae046)"><g clip-path="url(#b6aced9d0e)"><path fill="#ffffff" d="M 25.898438 12.125 L 25.898438 3.695312 L 36.996094 3.695312 L 36.996094 12.125 Z M 25.898438 12.125 " fill-opacity="1" fill-rule="nonzero"/></g></g><g clip-path="url(#c403054a40)"><path fill="#ffffff" d="M 5.550781 3.699219 L 31.460938 3.699219 L 31.460938 12.128906 L 5.550781 12.128906 Z M 5.550781 3.699219 " fill-opacity="1" fill-rule="nonzero"/></g><g clip-path="url(#d6d157872d)"><g clip-path="url(#5573d6329c)"><path fill="#ffffff" d="M 11.097656 24.941406 L 11.097656 33.371094 L 0.00390625 33.371094 L 0.00390625 24.941406 Z M 11.097656 24.941406 " fill-opacity="1" fill-rule="nonzero"/></g></g><g clip-path="url(#ec04d790b6)"><g clip-path="url(#04a7c6c29e)"><path fill="#ffffff" d="M 25.898438 33.363281 L 25.898438 24.933594 L 36.996094 24.933594 L 36.996094 33.363281 Z M 25.898438 33.363281 " fill-opacity="1" fill-rule="nonzero"/></g></g><g clip-path="url(#d93dd6fb59)"><path fill="#ffffff" d="M 5.550781 14.320312 L 31.460938 14.320312 L 31.460938 22.746094 L 5.550781 22.746094 Z M 5.550781 14.320312 " fill-opacity="1" fill-rule="nonzero"/></g><g clip-path="url(#8f61e64dac)"><path fill="#ffffff" d="M 5.550781 24.96875 L 31.460938 24.96875 L 31.460938 33.394531 L 5.550781 33.394531 Z M 5.550781 24.96875 " fill-opacity="1" fill-rule="nonzero"/></g></svg>